<svg id="Capa_1" enable-background="new 0 0 510.307 510.307" height="512" viewBox="0 0 510.307 510.307" width="512" xmlns="http://www.w3.org/2000/svg"><g><path d="m413.582 42.666-15.989-34.3c-2.37-5.082-7.525-8.366-13.132-8.366h-259.615c-5.607 0-10.762 3.284-13.132 8.367l-16.002 34.324c-12.43.637-22.348 10.95-22.348 23.535v6.96c0 5.268 1.738 10.137 4.67 14.065v33.521c0 4.143 3.358 7.5 7.5 7.5s7.5-3.357 7.5-7.5v-24.347c1.269.212 2.569.328 3.897.328h109.805v70.468c0 8.08-6.574 14.653-14.654 14.653h-.292c-8.08 0-14.653-6.573-14.653-14.653v-23.445c0-15.107-12.291-27.397-27.398-27.397s-27.397 12.29-27.397 27.397v75.676c0 8.08-6.574 14.654-14.654 14.654s-14.654-6.574-14.654-14.654v-66.716c0-4.143-3.358-7.5-7.5-7.5s-7.5 3.357-7.5 7.5v66.716c0 14.93 11.092 27.312 25.467 29.353l2.707 29.325c-15.666.774-28.173 13.762-28.173 29.616v30.578c0 16.352 13.303 29.654 29.654 29.654 2.319 0 4.573-.276 6.74-.782l10.616 115.019c1.478 16.015 14.721 28.092 30.803 28.092h197.612c16.083 0 29.325-12.077 30.803-28.092l4.375-47.395c.381-4.125-2.654-7.777-6.779-8.158-4.125-.367-7.777 2.655-8.158 6.779l-4.375 47.395c-.761 8.25-7.583 14.471-15.867 14.471h-197.612c-8.284 0-15.105-6.221-15.867-14.471l-11.172-121.043h251.689l-3.847 41.687c-.381 4.125 2.654 7.777 6.779 8.158.234.021.467.032.698.032 3.831 0 7.101-2.922 7.459-6.812l22.319-241.822c0-.005.001-.01.001-.015l6.018-65.202c9.817-2.846 17.017-11.912 17.017-22.633v-6.96c.001-12.924-10.46-23.449-23.359-23.56zm-288.411-27.666h258.964l12.895 27.66h-284.753zm24.569 116.378c6.836 0 12.398 5.562 12.398 12.397v8.988h-24.795v-8.988c-.001-6.836 5.561-12.397 12.397-12.397zm-56.705 206.945v-30.578c0-8.08 6.574-14.653 14.654-14.653s14.654 6.573 14.654 14.653v30.578c0 8.08-6.574 14.654-14.654 14.654s-14.654-6.574-14.654-14.654zm43.588 6.47c.466-2.084.719-4.247.719-6.47v-30.578c0-11.33-6.39-21.192-15.754-26.184l-3.181-34.469c11.067-4.307 18.935-15.069 18.935-27.642v-51.688h24.809c.292 16.1 13.471 29.11 29.64 29.11h.292c16.169 0 29.348-13.01 29.64-29.11h176.498l-16.339 177.029h-245.259zm285.319-271.606c0 4.724-3.843 8.566-8.567 8.566h-.426c-.016 0-.031 0-.047 0h-70.326c-4.142 0-7.5 3.357-7.5 7.5s3.358 7.5 7.5 7.5h62.199l-5.169 56.011h-177.87v-56.011h88.877c4.142 0 7.5-3.357 7.5-7.5s-3.358-7.5-7.5-7.5h-213.681c-4.724 0-8.567-3.843-8.567-8.566v-6.96c0-4.724 3.843-8.566 8.567-8.566h3.574 308.296 4.574c4.724 0 8.567 3.843 8.567 8.566v6.96z"/><path d="m255.153 196.472c-32.491 0-58.925 26.434-58.925 58.925s26.434 58.925 58.925 58.925 58.925-26.434 58.925-58.925-26.433-58.925-58.925-58.925zm0 102.849c-24.22 0-43.925-19.704-43.925-43.925s19.705-43.925 43.925-43.925 43.925 19.704 43.925 43.925-19.704 43.925-43.925 43.925z"/></g></svg>