<svg id="Capa_1" enable-background="new 0 0 510.306 510.306" height="512" viewBox="0 0 510.306 510.306" width="512" xmlns="http://www.w3.org/2000/svg"><g><path d="m115.472 204.219c0-12.364-10.059-22.423-22.423-22.423s-22.423 10.059-22.423 22.423 10.059 22.423 22.423 22.423 22.423-10.058 22.423-22.423zm-29.846 0c0-4.093 3.33-7.423 7.423-7.423s7.423 3.33 7.423 7.423-3.33 7.423-7.423 7.423-7.423-3.33-7.423-7.423z"/><path d="m502.806 490.052h-11.166v-48.34c0-12.531-10.195-22.727-22.727-22.727h-323.441v-20.927c0-13.298-10.818-24.116-24.116-24.116h-3.807v-33.57c0-4.143-3.358-7.5-7.5-7.5s-7.5 3.357-7.5 7.5v33.57h-19v-118.178c3.083.567 6.255.878 9.5.878s6.417-.312 9.5-.878v52.646c0 4.143 3.358 7.5 7.5 7.5s7.5-3.357 7.5-7.5v-57.864c16.386-8.701 27.627-25.836 27.904-45.582l110.254-56.316c1.495 1.045 3.047 2.021 4.661 2.913-8.212 11.576-12.656 25.368-12.656 39.85v16.534c-8.528 1.251-15.104 8.595-15.104 17.465v19.554c0 9.745 7.928 17.674 17.674 17.674h47.614c3.612 22.92 23.497 40.507 47.417 40.507h29.439c23.919 0 43.805-17.586 47.417-40.507h47.614c9.746 0 17.674-7.929 17.674-17.674v-19.554c0-8.87-6.575-16.214-15.104-17.465v-16.535c0-18.453-7.186-35.802-20.234-48.851l-29.764-29.764v-70.189c0-20.597-16.756-37.353-37.352-37.353h-49.94c-20.596 0-37.353 16.756-37.353 37.353v12.042c-3.849-.89-7.802-1.344-11.835-1.344-28.657 0-52.003 23.116-52.404 51.679l-46.638 23.822c-3.689 1.884-5.152 6.401-3.268 10.091 1.326 2.596 3.957 4.09 6.685 4.09 1.148 0 2.313-.265 3.406-.823l41.959-21.433c1.825 6.178 4.761 11.905 8.617 16.935l-100.956 51.567c-1.851-6.193-4.818-11.905-8.667-16.909l30.558-15.609c3.689-1.884 5.152-6.401 3.268-10.091-1.885-3.688-6.403-5.153-10.091-3.267l-35.199 17.98c-8.525-6.001-18.902-9.54-30.097-9.54-28.906 0-52.423 23.517-52.423 52.423 0 20.06 11.33 37.516 27.923 46.326v123.397h-3.807c-13.298 0-24.116 10.818-24.116 24.116v20.927h-.264c-12.532 0-22.727 10.195-22.727 22.727v48.34h-10.134c-4.142 0-7.5 3.357-7.5 7.5s3.358 7.5 7.5 7.5h17.636 459.005 18.666c4.142 0 7.5-3.357 7.5-7.5s-3.359-7.5-7.501-7.5zm-128.053-201.909h-29.439c-15.621 0-28.742-10.908-32.147-25.507h93.733c-3.405 14.599-16.526 25.507-32.147 25.507zm-62.042-245.537c0-12.325 10.027-22.353 22.353-22.353h49.94c12.325 0 22.352 10.027 22.352 22.353v73.296c0 1.989.79 3.896 2.197 5.304l31.961 31.96c10.215 10.216 15.841 23.798 15.841 38.244v16.325h-26.113c-4.142 0-7.5 3.357-7.5 7.5s3.358 7.5 7.5 7.5h38.543c1.474 0 2.674 1.199 2.674 2.674v19.554c0 1.475-1.2 2.674-2.674 2.674h-54.524-110.454-54.524c-1.474 0-2.674-1.199-2.674-2.674v-19.554c0-1.475 1.2-2.674 2.674-2.674h148.995c4.142 0 7.5-3.357 7.5-7.5s-3.358-7.5-7.5-7.5h-136.566v-16.325c0-14.085 5.361-27.34 15.097-37.462.01-.009.018-.02.028-.029.24-.25.47-.506.716-.752l31.961-31.961c1.407-1.407 2.197-3.314 2.197-5.304zm-26.836 70.544c-4.093 0-7.423-3.33-7.423-7.423s3.33-7.423 7.423-7.423 7.423 3.33 7.423 7.423-3.33 7.423-7.423 7.423zm0-44.846c4.08 0 8.042.65 11.835 1.918v16.472c-3.438-2.146-7.493-3.39-11.835-3.39-12.364 0-22.423 10.059-22.423 22.423 0 11.251 8.33 20.59 19.146 22.181l-11.998 11.999c-3.129-1.39-6.001-3.178-8.569-5.29-.368-.389-.77-.736-1.204-1.033-6.914-6.198-11.363-14.864-12.218-24.461-.008-.163-.024-.325-.043-.488-.073-.961-.113-1.931-.113-2.909 0-20.633 16.787-37.422 37.422-37.422zm-230.249 135.915c0-20.635 16.788-37.423 37.423-37.423 19.525 0 35.595 15.032 37.27 34.129.003.048.007.097.011.145.087 1.039.142 2.087.142 3.148 0 20.635-16.788 37.423-37.423 37.423s-37.423-16.787-37.423-37.422zm0 193.84c0-5.026 4.089-9.116 9.116-9.116h56.613c5.027 0 9.116 4.09 9.116 9.116v20.927h-74.845zm-22.99 91.993v-48.34c0-4.261 3.466-7.727 7.727-7.727h428.551c4.261 0 7.727 3.466 7.727 7.727v48.34z"/><path d="m306.371 155.726v29.505c0 4.143 3.358 7.5 7.5 7.5s7.5-3.357 7.5-7.5v-29.505c0-4.143-3.358-7.5-7.5-7.5s-7.5 3.358-7.5 7.5z"/><path d="m343.7 192.731c4.142 0 7.5-3.357 7.5-7.5v-29.505c0-4.143-3.358-7.5-7.5-7.5s-7.5 3.357-7.5 7.5v29.505c0 4.143 3.358 7.5 7.5 7.5z"/><path d="m373.529 192.731c4.142 0 7.5-3.357 7.5-7.5v-29.505c0-4.143-3.358-7.5-7.5-7.5s-7.5 3.357-7.5 7.5v29.505c0 4.143 3.358 7.5 7.5 7.5z"/><path d="m316.92 322.729-15.477 68.097c-.918 4.039 1.612 8.058 5.651 8.976.56.127 1.118.188 1.669.188 3.424 0 6.516-2.36 7.307-5.84l15.477-68.097c.918-4.039-1.612-8.058-5.651-8.976-4.038-.916-8.057 1.613-8.976 5.652z"/><path d="m394.17 317.078c-4.039.918-6.569 4.937-5.651 8.976l15.477 68.097c.791 3.479 3.883 5.84 7.307 5.84.55 0 1.11-.062 1.669-.188 4.039-.918 6.569-4.937 5.651-8.976l-15.477-68.097c-.918-4.04-4.937-6.571-8.976-5.652z"/></g></svg>