<?xml version="1.0" encoding="UTF-8"?>
<svg viewBox="0 0 657 647" version="1.1" xmlns="http://www.w3.org/2000/svg" xmlns:xlink="http://www.w3.org/1999/xlink">
    <title>Page 1</title>
    <g id="Page-1" stroke="none" stroke-width="1" fill="none" fill-rule="evenodd">
        <rect id="vqqqaaa" fill-opacity="0" fill="#FFFFFF" x="0" y="0" width="657" height="647"></rect>
        <g id="coffee-cup" transform="translate(10.000000, 23.000000)" fill-rule="nonzero">
            <circle id="Oval" stroke="#979797" fill="#00EBFF" cx="256" cy="256" r="255.5"></circle>
            <g transform="translate(283.000000, 113.000000)" fill="#000000" id="Shape">
                <path d="M340.582,42.666 L324.593,8.366 C322.223,3.284 317.068,0 311.461,0 L51.846,0 C46.239,0 41.084,3.284 38.714,8.367 L22.712,42.691 C10.282,43.328 0.364,53.641 0.364,66.226 L0.364,73.186 C0.364,78.454 2.102,83.323 5.034,87.251 L5.034,120.772 C5.034,124.915 8.392,128.272 12.534,128.272 C16.676,128.272 20.034,124.915 20.034,120.772 L20.034,96.425 C21.303,96.637 22.603,96.753 23.931,96.753 L133.736,96.753 L133.736,167.221 C133.736,175.301 127.162,181.874 119.082,181.874 L118.79,181.874 C110.71,181.874 104.137,175.301 104.137,167.221 L104.137,143.776 C104.137,128.669 91.846,116.379 76.739,116.379 C61.632,116.379 49.342,128.669 49.342,143.776 L49.342,219.452 C49.342,227.532 42.768,234.106 34.688,234.106 C26.608,234.106 20.034,227.532 20.034,219.452 L20.034,152.736 C20.034,148.593 16.676,145.236 12.534,145.236 C8.392,145.236 5.034,148.593 5.034,152.736 L5.034,219.452 C5.034,234.382 16.126,246.764 30.501,248.805 L33.208,278.13 C17.542,278.904 5.035,291.892 5.035,307.746 L5.035,338.324 C5.035,354.676 18.338,367.978 34.689,367.978 C37.008,367.978 39.262,367.702 41.429,367.196 L52.045,482.215 C53.523,498.23 66.766,510.307 82.848,510.307 L280.46,510.307 C296.543,510.307 309.785,498.23 311.263,482.215 L315.638,434.82 C316.019,430.695 312.984,427.043 308.859,426.662 C304.734,426.295 301.082,429.317 300.701,433.441 L296.326,480.836 C295.565,489.086 288.743,495.307 280.459,495.307 L82.847,495.307 C74.563,495.307 67.742,489.086 66.98,480.836 L55.808,359.793 L307.497,359.793 L303.65,401.48 C303.269,405.605 306.304,409.257 310.429,409.638 C310.663,409.659 310.896,409.67 311.127,409.67 C314.958,409.67 318.228,406.748 318.586,402.858 L340.905,161.036 C340.905,161.031 340.906,161.026 340.906,161.021 L346.924,95.819 C356.741,92.973 363.941,83.907 363.941,73.186 L363.941,66.226 C363.941,53.302 353.481,42.777 340.582,42.666 Z M52.171,15 L311.135,15 L324.03,42.66 L39.277,42.66 L52.171,15 Z M76.74,131.378 C83.576,131.378 89.138,136.94 89.138,143.775 L89.138,152.763 L64.343,152.763 L64.343,143.775 C64.342,136.939 69.904,131.378 76.74,131.378 L76.74,131.378 Z M20.035,338.323 L20.035,307.745 C20.035,299.665 26.609,293.092 34.689,293.092 C42.769,293.092 49.343,299.665 49.343,307.745 L49.343,338.323 C49.343,346.403 42.769,352.977 34.689,352.977 C26.609,352.977 20.035,346.403 20.035,338.323 Z M63.623,344.793 C64.089,342.709 64.342,340.546 64.342,338.323 L64.342,307.745 C64.342,296.415 57.952,286.553 48.588,281.561 L45.407,247.092 C56.474,242.785 64.342,232.023 64.342,219.45 L64.342,167.762 L89.151,167.762 C89.443,183.862 102.622,196.872 118.791,196.872 L119.083,196.872 C135.252,196.872 148.431,183.862 148.723,167.762 L325.221,167.762 L308.882,344.791 L63.623,344.791 L63.623,344.793 Z M348.943,73.187 C348.943,77.911 345.099,81.753 340.375,81.753 L339.949,81.753 C339.933,81.753 339.918,81.753 339.902,81.753 L269.576,81.753 C265.434,81.753 262.076,85.11 262.076,89.253 C262.076,93.396 265.434,96.753 269.576,96.753 L331.775,96.753 L326.606,152.764 L148.736,152.764 L148.736,96.753 L237.613,96.753 C241.755,96.753 245.113,93.396 245.113,89.253 C245.113,85.11 241.755,81.753 237.613,81.753 L23.932,81.753 C19.208,81.753 15.365,77.91 15.365,73.187 L15.365,66.227 C15.365,61.503 19.208,57.661 23.932,57.661 L27.506,57.661 L335.802,57.661 L340.376,57.661 C345.1,57.661 348.943,61.504 348.943,66.227 L348.943,73.187 L348.943,73.187 Z"></path>
                <path d="M182.153,196.472 C149.662,196.472 123.228,222.906 123.228,255.397 C123.228,287.888 149.662,314.322 182.153,314.322 C214.644,314.322 241.078,287.888 241.078,255.397 C241.078,222.906 214.645,196.472 182.153,196.472 L182.153,196.472 Z M182.153,299.321 C157.933,299.321 138.228,279.617 138.228,255.396 C138.228,231.175 157.933,211.471 182.153,211.471 C206.373,211.471 226.078,231.175 226.078,255.396 C226.078,279.617 206.374,299.321 182.153,299.321 L182.153,299.321 Z"></path>
            </g>
        </g>
    </g>
</svg>