<?xml version="1.0" encoding="UTF-8"?>
<svg viewBox="0 0 657 647" version="1.1" xmlns="http://www.w3.org/2000/svg" xmlns:xlink="http://www.w3.org/1999/xlink">
    <title>Page 1</title>
    <g id="Page-1" stroke="none" stroke-width="1" fill="none" fill-rule="evenodd">
        <rect id="vqqqaaa-copy-3" fill-opacity="0" fill="#FFFFFF" x="0" y="0" width="657" height="647"></rect>
        <path d="M400.5,80.1297757 L475.551426,232.200574 L643.371516,256.586261 L521.935758,374.95687 L550.602852,542.098851 L400.5,463.185112 L250.397148,542.098851 L279.064242,374.95687 L157.628484,256.586261 L325.448574,232.200574 L400.5,80.1297757 Z" id="Star" stroke="#979797" fill="#FCFF46"></path>
        <g id="furniture-and-household" transform="translate(56.000000, 85.000000)" fill="#000000" fill-rule="nonzero">
            <path d="M115.472,199.219 C115.472,186.855 105.413,176.796 93.049,176.796 C80.685,176.796 70.626,186.855 70.626,199.219 C70.626,211.583 80.685,221.642 93.049,221.642 C105.413,221.642 115.472,211.584 115.472,199.219 Z M85.626,199.219 C85.626,195.126 88.956,191.796 93.049,191.796 C97.142,191.796 100.472,195.126 100.472,199.219 C100.472,203.312 97.142,206.642 93.049,206.642 C88.956,206.642 85.626,203.312 85.626,199.219 Z" id="Shape"></path>
            <path d="M502.806,485.052 L491.64,485.052 L491.64,436.712 C491.64,424.181 481.445,413.985 468.913,413.985 L145.472,413.985 L145.472,393.058 C145.472,379.76 134.654,368.942 121.356,368.942 L117.549,368.942 L117.549,335.372 C117.549,331.229 114.191,327.872 110.049,327.872 C105.907,327.872 102.549,331.229 102.549,335.372 L102.549,368.942 L83.549,368.942 L83.549,250.764 C86.632,251.331 89.804,251.642 93.049,251.642 C96.294,251.642 99.466,251.33 102.549,250.764 L102.549,303.41 C102.549,307.553 105.907,310.91 110.049,310.91 C114.191,310.91 117.549,307.553 117.549,303.41 L117.549,245.546 C133.935,236.845 145.176,219.71 145.453,199.964 L255.707,143.648 C257.202,144.693 258.754,145.669 260.368,146.561 C252.156,158.137 247.712,171.929 247.712,186.411 L247.712,202.945 C239.184,204.196 232.608,211.54 232.608,220.41 L232.608,239.964 C232.608,249.709 240.536,257.638 250.282,257.638 L297.896,257.638 C301.508,280.558 321.393,298.145 345.313,298.145 L374.752,298.145 C398.671,298.145 418.557,280.559 422.169,257.638 L469.783,257.638 C479.529,257.638 487.457,249.709 487.457,239.964 L487.457,220.41 C487.457,211.54 480.882,204.196 472.353,202.945 L472.353,186.41 C472.353,167.957 465.167,150.608 452.119,137.559 L422.355,107.795 L422.355,37.606 C422.355,17.009 405.599,0.253 385.003,0.253 L335.063,0.253 C314.467,0.253 297.71,17.009 297.71,37.606 L297.71,49.648 C293.861,48.758 289.908,48.304 285.875,48.304 C257.218,48.304 233.872,71.42 233.471,99.983 L186.833,123.805 C183.144,125.689 181.681,130.206 183.565,133.896 C184.891,136.492 187.522,137.986 190.25,137.986 C191.398,137.986 192.563,137.721 193.656,137.163 L235.615,115.73 C237.44,121.908 240.376,127.635 244.232,132.665 L143.276,184.232 C141.425,178.039 138.458,172.327 134.609,167.323 L165.167,151.714 C168.856,149.83 170.319,145.313 168.435,141.623 C166.55,137.935 162.032,136.47 158.344,138.356 L123.145,156.336 C114.62,150.335 104.243,146.796 93.048,146.796 C64.142,146.796 40.625,170.313 40.625,199.219 C40.625,219.279 51.955,236.735 68.548,245.545 L68.548,368.942 L64.741,368.942 C51.443,368.942 40.625,379.76 40.625,393.058 L40.625,413.985 L40.361,413.985 C27.829,413.985 17.634,424.18 17.634,436.712 L17.634,485.052 L7.5,485.052 C3.358,485.052 1.13686838e-13,488.409 1.13686838e-13,492.552 C1.13686838e-13,496.695 3.358,500.052 7.5,500.052 L25.136,500.052 L484.141,500.052 L502.807,500.052 C506.949,500.052 510.307,496.695 510.307,492.552 C510.307,488.409 506.948,485.052 502.806,485.052 L502.806,485.052 Z M374.753,283.143 L345.314,283.143 C329.693,283.143 316.572,272.235 313.167,257.636 L406.9,257.636 C403.495,272.235 390.374,283.143 374.753,283.143 Z M312.711,37.606 C312.711,25.281 322.738,15.253 335.064,15.253 L385.004,15.253 C397.329,15.253 407.356,25.28 407.356,37.606 L407.356,110.902 C407.356,112.891 408.146,114.798 409.553,116.206 L441.514,148.166 C451.729,158.382 457.355,171.964 457.355,186.41 L457.355,202.735 L431.242,202.735 C427.1,202.735 423.742,206.092 423.742,210.235 C423.742,214.378 427.1,217.735 431.242,217.735 L469.785,217.735 C471.259,217.735 472.459,218.934 472.459,220.409 L472.459,239.963 C472.459,241.438 471.259,242.637 469.785,242.637 L415.261,242.637 L304.807,242.637 L250.283,242.637 C248.809,242.637 247.609,241.438 247.609,239.963 L247.609,220.409 C247.609,218.934 248.809,217.735 250.283,217.735 L399.278,217.735 C403.42,217.735 406.778,214.378 406.778,210.235 C406.778,206.092 403.42,202.735 399.278,202.735 L262.712,202.735 L262.712,186.41 C262.712,172.325 268.073,159.07 277.809,148.948 C277.819,148.939 277.827,148.928 277.837,148.919 C278.077,148.669 278.307,148.413 278.553,148.167 L310.514,116.206 C311.921,114.799 312.711,112.892 312.711,110.902 L312.711,37.606 Z M285.875,108.15 C281.782,108.15 278.452,104.82 278.452,100.727 C278.452,96.634 281.782,93.304 285.875,93.304 C289.968,93.304 293.298,96.634 293.298,100.727 C293.298,104.82 289.968,108.15 285.875,108.15 Z M285.875,63.304 C289.955,63.304 293.917,63.954 297.71,65.222 L297.71,81.694 C294.272,79.548 290.217,78.304 285.875,78.304 C273.511,78.304 263.452,88.363 263.452,100.727 C263.452,111.978 271.782,121.317 282.598,122.908 L270.6,134.907 C267.471,133.517 264.599,131.729 262.031,129.617 C261.663,129.228 261.261,128.881 260.827,128.584 C253.913,122.386 249.464,113.72 248.609,104.123 C248.601,103.96 248.585,103.798 248.566,103.635 C248.493,102.674 248.453,101.704 248.453,100.726 C248.453,80.093 265.24,63.304 285.875,63.304 L285.875,63.304 Z M55.626,199.219 C55.626,178.584 72.414,161.796 93.049,161.796 C112.574,161.796 128.644,176.828 130.319,195.925 C130.322,195.973 130.326,196.022 130.33,196.07 C130.417,197.109 130.472,198.157 130.472,199.218 C130.472,219.853 113.684,236.641 93.049,236.641 C72.414,236.641 55.626,219.854 55.626,199.219 Z M55.626,393.059 C55.626,388.033 59.715,383.943 64.742,383.943 L121.355,383.943 C126.382,383.943 130.471,388.033 130.471,393.059 L130.471,413.986 L55.626,413.986 L55.626,393.059 Z M32.636,485.052 L32.636,436.712 C32.636,432.451 36.102,428.985 40.363,428.985 L468.914,428.985 C473.175,428.985 476.641,432.451 476.641,436.712 L476.641,485.052 L32.636,485.052 Z" id="Shape"></path>
            <path d="M306.371,150.726 L306.371,180.231 C306.371,184.374 309.729,187.731 313.871,187.731 C318.013,187.731 321.371,184.374 321.371,180.231 L321.371,150.726 C321.371,146.583 318.013,143.226 313.871,143.226 C309.729,143.226 306.371,146.584 306.371,150.726 Z" id="Path"></path>
            <path d="M343.7,187.731 C347.842,187.731 351.2,184.374 351.2,180.231 L351.2,150.726 C351.2,146.583 347.842,143.226 343.7,143.226 C339.558,143.226 336.2,146.583 336.2,150.726 L336.2,180.231 C336.2,184.374 339.558,187.731 343.7,187.731 Z" id="Path"></path>
            <path d="M373.529,187.731 C377.671,187.731 381.029,184.374 381.029,180.231 L381.029,150.726 C381.029,146.583 377.671,143.226 373.529,143.226 C369.387,143.226 366.029,146.583 366.029,150.726 L366.029,180.231 C366.029,184.374 369.387,187.731 373.529,187.731 Z" id="Path"></path>
            <path d="M316.92,317.729 L301.443,385.826 C300.525,389.865 303.055,393.884 307.094,394.802 C307.654,394.929 308.212,394.99 308.763,394.99 C312.187,394.99 315.279,392.63 316.07,389.15 L331.547,321.053 C332.465,317.014 329.935,312.995 325.896,312.077 C321.858,311.161 317.839,313.69 316.92,317.729 Z" id="Path"></path>
            <path d="M394.17,312.078 C390.131,312.996 387.601,317.015 388.519,321.054 L403.996,389.151 C404.787,392.63 407.879,394.991 411.303,394.991 C411.853,394.991 412.413,394.929 412.972,394.803 C417.011,393.885 419.541,389.866 418.623,385.827 L403.146,317.73 C402.228,313.69 398.209,311.159 394.17,312.078 Z" id="Path"></path>
        </g>
    </g>
</svg>