<?xml version="1.0" encoding="UTF-8"?>
<svg viewBox="0 0 657 647" version="1.1" xmlns="http://www.w3.org/2000/svg" xmlns:xlink="http://www.w3.org/1999/xlink">
    <title>Page 1</title>
    <g id="Page-1" stroke="none" stroke-width="1" fill="none" fill-rule="evenodd">
        <rect id="vqqqaaa-copy" fill-opacity="0" fill="#FFFFFF" x="0" y="0" width="657" height="647"></rect>
        <path d="M313,172.949282 L514.101978,497.5 L111.898022,497.5 L313,172.949282 Z" id="Triangle" stroke="#979797" fill="#EB219B" transform="translate(313.000000, 335.000000) rotate(-270.000000) translate(-313.000000, -335.000000) "></path>
        <g id="magic" transform="translate(96.000000, 46.000000)" fill="#000000" fill-rule="nonzero">
            <path d="M442.334445,189.643658 L466.902239,115.142744 C468.581076,110.051342 467.343865,104.523925 463.672777,100.720135 C460.00169,96.9163452 454.666011,95.6355467 449.754425,97.3728 L429.513035,104.538686 C425.217314,106.060202 422.924803,110.900666 424.392142,115.350533 C425.861673,119.80267 430.532172,122.176916 434.826797,120.656536 L449.415808,115.49133 L426.329599,185.49923 C425.009104,189.50059 425.491276,193.852807 427.652287,197.438588 L466.520884,261.947457 L391.653713,255.879561 C386.684046,255.462847 381.944508,257.913169 379.253108,262.236999 L341.333514,323.053354 L322.03784,256.832212 C320.729399,252.33352 317.356382,248.836305 313.011348,247.476024 L249.097168,227.48285 L307.794021,188.191405 C311.96591,185.397038 314.316502,180.473685 313.928572,175.34595 L308.07127,97.7702109 L370.334009,138.0461 C373.791406,140.279549 377.990692,140.779152 381.849169,139.413194 L401.611674,132.416491 C405.907395,130.896111 408.199906,126.054511 406.731471,121.60578 C405.264132,117.154778 400.588153,114.774855 396.297912,116.300912 L377.852615,122.830941 L311.850847,80.1365225 C307.499238,77.3228535 302.075891,77.2853833 297.691407,80.0411439 C293.306924,82.7980399 290.831405,87.8008751 291.230294,93.0989299 L297.404296,174.870192 L234.857732,216.737996 C230.385581,219.732203 228.070056,224.985975 228.81304,230.448671 C229.556024,235.911367 233.18547,240.296513 238.28335,241.890698 L275.038058,253.388362 L80.0090718,455.46271 C76.7993359,458.789607 76.7993359,464.180769 80.0090718,467.506531 C81.6144877,469.168844 83.7185139,470 85.8214443,470 C87.9243747,470 90.0284009,469.168844 91.6338168,467.506531 L292.893789,258.972553 L306.755158,263.308873 L310.940198,277.672438 L249.488385,341.345609 C246.27865,344.672506 246.27865,350.063668 249.488385,353.389429 C251.093801,355.051742 253.197828,355.882899 255.300758,355.882899 C257.403688,355.882899 259.507715,355.051742 261.11313,353.389429 L316.331765,296.173618 L327.428312,334.256934 C328.966881,339.537957 333.199042,343.298599 338.471162,344.069576 C339.124287,344.164955 339.773028,344.212644 340.41629,344.211509 C344.965151,344.211509 349.171012,341.866785 351.703514,337.806381 L392.111777,273.000021 L471.030294,279.397201 C476.14242,279.804831 480.970722,277.246641 483.630343,272.702531 C486.291059,268.159557 486.255992,262.537896 483.540484,258.031257 L442.334445,189.643658 Z" id="Path"></path>
            <path d="M224.558865,365.49732 L39.3402403,557.560119 C33.9752084,563.123366 25.559171,563.453158 20.5779824,558.286799 C15.5978904,553.123851 15.9126419,544.395739 21.2798672,538.832492 L66.5832407,491.855353 C69.7954604,488.523318 69.7954604,483.12383 66.5832407,479.792932 C63.3699244,476.463172 58.1628165,476.463172 54.9505969,479.792932 L9.64612666,526.768935 C-2.13347428,538.984879 -2.44822575,558.533574 8.94643525,570.349219 C14.5187425,576.127399 21.8742759,579 29.3153514,579 C37.0887255,579 44.9553187,575.862428 50.9739809,569.62254 L236.192605,377.559741 C239.404825,374.227706 239.404825,368.828218 236.192605,365.49732 C232.979289,362.16756 227.772181,362.16756 224.558865,365.49732 L224.558865,365.49732 Z" id="Path"></path>
            <path d="M177.416902,178.391562 C179.313395,179.458534 181.428212,180 183.549546,180 C184.932269,180 186.320423,179.769735 187.648837,179.302364 L219.749087,168.027337 C223.972204,166.54543 227.136283,162.953517 228.2127,158.417744 C229.289117,153.883111 228.100822,149.15241 225.0345,145.764544 L201.029644,119.23614 C196.344895,114.055168 188.585135,113.561579 183.368152,118.114451 L183.369238,118.113311 C166.017311,133.246995 167.07309,154.649142 171.013797,169.937856 C171.944664,173.545728 174.277806,176.625813 177.416902,178.391562 L177.416902,178.391562 Z M191.480924,133.514878 L209.61491,153.555951 L185.900067,161.885405 C184.080694,153.160396 183.598425,142.17947 191.480924,133.514878 L191.480924,133.514878 Z" id="Shape"></path>
            <path d="M357.670566,58.14962 C360.158486,61.8403871 364.179479,64 368.510631,64 C368.692295,64 368.87396,63.996572 369.056733,63.9885735 C373.595027,63.7988932 377.665866,61.2679182 379.947752,57.2183583 L397.815139,25.5131838 C401.301107,19.3245787 399.539846,11.3545786 393.804115,7.36900719 C393.804115,7.36900719 393.804115,7.36786454 393.803008,7.36786454 C374.718246,-5.88918795 355.061905,1.20096984 341.934416,9.48291403 C338.836147,11.4357069 336.629586,14.6591291 335.881881,18.3247579 C335.136391,21.985816 335.895173,25.8456956 337.964378,28.9137171 L357.670566,58.14962 Z M381.763291,19.8936195 L368.264719,43.8436127 L353.706066,22.2463407 C361.322691,17.9533959 371.426127,14.3757514 381.763291,19.8936195 Z" id="Shape"></path>
            <path d="M268.718109,54.8571763 C270.371407,56.9268132 272.791629,58 275.234179,58 C277.08172,58 278.942657,57.3838486 280.492135,56.1176912 C284.088979,53.1791228 284.647148,47.8504286 281.739085,44.2155865 L266.485431,25.1431041 C263.579601,21.508262 258.308249,20.9428923 254.711405,23.8825891 C251.114561,26.8211575 250.556392,32.1498518 253.464454,35.7846939 L268.718109,54.8571763 Z" id="Path"></path>
            <path d="M420.785705,347.743206 C417.500964,344.526855 412.916909,343.279535 408.520681,344.407139 C404.124452,345.537024 400.643046,348.858268 399.206731,353.290015 L388.278584,386.985882 C387.131742,390.520334 387.453256,394.433314 389.160261,397.722634 C390.87058,401.018795 393.855906,403.467829 397.353885,404.446074 C403.751011,406.231542 409.488536,407 414.633858,407 C431.07414,407 441.415607,399.135275 447.584027,391.478056 C451.994619,386.001936 451.518425,377.859015 446.496847,372.939286 L420.785705,347.743206 Z M405.161914,388.820376 L413.235108,363.927574 L432.65961,382.962307 C424.259378,391.238625 413.616284,390.732401 405.161914,388.820376 L405.161914,388.820376 Z" id="Shape"></path>
            <path d="M553.582812,172.980162 C553.582812,172.97902 553.581723,172.97902 553.582812,172.980162 C549.782726,167.062938 542.186909,165.24779 536.28474,168.842675 L506.064848,187.269457 C502.204857,189.622639 499.792363,193.820669 499.612651,198.500759 C499.43185,203.179706 501.513239,207.568504 505.17827,210.240393 L533.042304,230.562287 C535.23152,232.159252 537.840063,233 540.478014,233 C541.365681,233 542.257705,232.904045 543.135569,232.710993 C546.630691,231.939926 549.703217,229.665565 551.564595,226.471635 C565.871828,201.942572 560.558896,183.843636 553.582812,172.980162 L553.582812,172.980162 Z M539.401922,214.328761 L518.814579,199.314091 L541.644506,185.393766 C546.905159,196.057334 543.494993,206.47416 539.401922,214.328761 Z" id="Shape"></path>
            <path d="M537.545641,303.651797 L519.003035,287.921385 C515.466982,284.921279 510.287428,285.498045 507.431597,289.207309 C504.574669,292.915422 505.123234,298.351532 508.657092,301.349336 L527.199698,317.079748 C528.722515,318.371428 530.551432,319 532.367184,319 C534.767706,319 537.145188,317.90518 538.771136,315.793823 C541.629161,312.08571 541.080596,306.648449 537.545641,303.651797 L537.545641,303.651797 Z" id="Path"></path>
            <path d="M518.383177,48.702344 C515.281722,45.2640509 510.077548,45.0809936 506.761216,48.3009824 L486.206539,68.2451291 C482.891304,71.4628438 482.716991,76.8590539 485.819543,80.298484 C487.438789,82.0926727 489.629213,83 491.826214,83 C493.837939,83 495.856242,82.2382089 497.441503,80.6998456 L517.99618,60.7556989 C521.312511,57.5368471 521.486824,52.1406371 518.383177,48.702344 Z" id="Path"></path>
        </g>
    </g>
</svg>