<svg id="Capa_1" enable-background="new 0 0 510.172 510.172" viewBox="0 0 510.172 510.172" xmlns="http://www.w3.org/2000/svg"><g><path d="m491.325 118.086h-251.314c-6.069-17.946-23.056-30.905-43.025-30.905h-26.346v-3.607c0-16.313-13.271-29.583-29.583-29.583h-39.711c-16.312 0-29.583 13.271-29.583 29.583v3.607h-26.347c-25.042-.001-45.416 20.372-45.416 45.415v244.767c0 24.813 20.003 45.028 44.729 45.398v6.839c0 14.657 11.925 26.582 26.583 26.582h99.779c14.658 0 26.583-11.925 26.583-26.582v-6.839c17.123-.256 31.975-10.029 39.492-24.261h193.486c6.891 0 12.497-5.606 12.497-12.497v-13.976c0-22.36 18.191-40.552 40.552-40.552h13.976c6.891 0 12.497-5.606 12.497-12.497v-182.045c-.002-10.392-8.457-18.847-18.849-18.847zm3.847 18.847v39.306h-252.77v-43.153h248.923c2.122 0 3.847 1.725 3.847 3.847zm-408.41-53.36c0-8.041 6.542-14.583 14.583-14.583h39.711c8.042 0 14.583 6.542 14.583 14.583v3.607h-68.877zm-41.346 18.607h33.846 83.877 33.846c16.771 0 30.416 13.645 30.416 30.416v8.999h-212.401v-8.999c0-16.771 13.645-30.416 30.416-30.416zm137.257 327.42c0 6.387-5.196 11.582-11.583 11.582h-99.778c-6.387 0-11.583-5.195-11.583-11.582v-6.821h122.944zm14.313-21.821h-6.813-137.944-6.813c-16.771 0-30.416-13.644-30.416-30.416v-8.502h212.402v8.502c0 16.772-13.645 30.416-30.416 30.416zm286.714-91.303c-10.923 0-21.112 3.182-29.712 8.649-.5-.105-1.018-.162-1.549-.162h-49.52c-4.143 0-7.5 3.357-7.5 7.5s3.357 7.5 7.5 7.5h35.459c-6.433 9.066-10.231 20.126-10.231 32.064v11.473h-186.171c.273-2.009.426-4.055.426-6.138v-37.399h128.555c4.143 0 7.5-3.357 7.5-7.5s-3.357-7.5-7.5-7.5h-128.555v-81.369c0-4.143-3.358-7.5-7.5-7.5s-7.5 3.357-7.5 7.5v110.267h-212.402v-31.424h80.77c21.585 0 39.146-17.562 39.146-39.146v-56.623c0-21.585-17.561-39.146-39.146-39.146h-23.121c-4.142 0-7.5 3.357-7.5 7.5s3.358 7.5 7.5 7.5h23.121c13.314 0 24.146 10.832 24.146 24.146v56.623c0 13.314-10.832 24.146-24.146 24.146h-80.77v-104.916h25.687c4.142 0 7.5-3.357 7.5-7.5s-3.358-7.5-7.5-7.5h-25.687v-30.926h212.402v55.037c0 4.143 3.358 7.5 7.5 7.5s7.5-3.357 7.5-7.5v-20.394h252.771v125.237h-11.473z"/><path d="m280.91 163.345c4.143 0 7.5-3.357 7.5-7.5v-2.602c0-4.143-3.357-7.5-7.5-7.5s-7.5 3.357-7.5 7.5v2.602c0 4.143 3.357 7.5 7.5 7.5z"/><path d="m321.289 163.345c4.143 0 7.5-3.357 7.5-7.5v-2.602c0-4.143-3.357-7.5-7.5-7.5s-7.5 3.357-7.5 7.5v2.602c0 4.143 3.357 7.5 7.5 7.5z"/><path d="m361.667 163.345c4.143 0 7.5-3.357 7.5-7.5v-2.602c0-4.143-3.357-7.5-7.5-7.5s-7.5 3.357-7.5 7.5v2.602c0 4.143 3.357 7.5 7.5 7.5z"/><path d="m402.044 163.345c4.143 0 7.5-3.357 7.5-7.5v-2.602c0-4.143-3.357-7.5-7.5-7.5s-7.5 3.357-7.5 7.5v2.602c0 4.143 3.358 7.5 7.5 7.5z"/><path d="m442.422 163.345c4.143 0 7.5-3.357 7.5-7.5v-2.602c0-4.143-3.357-7.5-7.5-7.5s-7.5 3.357-7.5 7.5v2.602c0 4.143 3.358 7.5 7.5 7.5z"/><path d="m280.91 353.861c-4.143 0-7.5 3.357-7.5 7.5v2.106c0 4.143 3.357 7.5 7.5 7.5s7.5-3.357 7.5-7.5v-2.106c0-4.142-3.358-7.5-7.5-7.5z"/><path d="m321.289 353.861c-4.143 0-7.5 3.357-7.5 7.5v2.106c0 4.143 3.357 7.5 7.5 7.5s7.5-3.357 7.5-7.5v-2.106c0-4.142-3.358-7.5-7.5-7.5z"/><path d="m361.667 353.861c-4.143 0-7.5 3.357-7.5 7.5v2.106c0 4.143 3.357 7.5 7.5 7.5s7.5-3.357 7.5-7.5v-2.106c0-4.142-3.358-7.5-7.5-7.5z"/><path d="m394.544 363.468c0 4.143 3.357 7.5 7.5 7.5s7.5-3.357 7.5-7.5v-2.106c0-4.143-3.357-7.5-7.5-7.5s-7.5 3.357-7.5 7.5z"/></g></svg>