<?xml version="1.0" encoding="UTF-8"?>
<svg viewBox="0 0 657 647" version="1.1" xmlns="http://www.w3.org/2000/svg" xmlns:xlink="http://www.w3.org/1999/xlink">
    <title>Page 1</title>
    <g id="Page-1" stroke="none" stroke-width="1" fill="none" fill-rule="evenodd">
        <rect id="vqqqaaa-copy-2" fill-opacity="0" fill="#FFFFFF" x="0" y="0" width="657" height="647"></rect>
        <path d="M455,133.618034 L646.525631,272.76955 L573.36935,497.921433 L336.63065,497.921433 L263.474369,272.76955 L455,133.618034 Z" id="Polygon" stroke="#979797" fill="#A400FF" transform="translate(455.000000, 335.000000) rotate(28.000000) translate(-455.000000, -335.000000) "></path>
        <g id="photography" transform="translate(14.000000, 133.000000)" fill="#000000" fill-rule="nonzero">
            <path d="M491.325,65.086 L240.011,65.086 C233.942,47.14 216.955,34.181 196.986,34.181 L170.64,34.181 L170.64,30.574 C170.64,14.261 157.369,0.991 141.057,0.991 L101.346,0.991 C85.034,0.991 71.763,14.262 71.763,30.574 L71.763,34.181 L45.416,34.181 C20.374,34.18 0,54.553 0,79.596 L0,324.363 C0,349.176 20.003,369.391 44.729,369.761 L44.729,376.6 C44.729,391.257 56.654,403.182 71.312,403.182 L171.091,403.182 C185.749,403.182 197.674,391.257 197.674,376.6 L197.674,369.761 C214.797,369.505 229.649,359.732 237.166,345.5 L430.652,345.5 C437.543,345.5 443.149,339.894 443.149,333.003 L443.149,319.027 C443.149,296.667 461.34,278.475 483.701,278.475 L497.677,278.475 C504.568,278.475 510.174,272.869 510.174,265.978 L510.174,83.933 C510.174,73.541 501.717,65.086 491.325,65.086 Z M495.172,83.933 L495.172,123.239 L242.402,123.239 L242.402,80.086 L491.325,80.086 C493.447,80.086 495.172,81.811 495.172,83.933 L495.172,83.933 Z M86.762,30.573 C86.762,22.532 93.304,15.99 101.345,15.99 L141.056,15.99 C149.098,15.99 155.639,22.532 155.639,30.573 L155.639,34.18 L86.762,34.18 L86.762,30.573 Z M45.416,49.18 L79.262,49.18 L163.139,49.18 L196.985,49.18 C213.756,49.18 227.401,62.825 227.401,79.596 L227.401,88.595 L15,88.595 L15,79.596 C15,62.825 28.645,49.18 45.416,49.18 L45.416,49.18 Z M182.673,376.6 C182.673,382.987 177.477,388.182 171.09,388.182 L71.312,388.182 C64.925,388.182 59.729,382.987 59.729,376.6 L59.729,369.779 L182.673,369.779 L182.673,376.6 Z M196.986,354.779 L190.173,354.779 L52.229,354.779 L45.416,354.779 C28.645,354.779 15,341.135 15,324.363 L15,315.861 L227.402,315.861 L227.402,324.363 C227.402,341.135 213.757,354.779 196.986,354.779 Z M483.7,263.476 C472.777,263.476 462.588,266.658 453.988,272.125 C453.488,272.02 452.97,271.963 452.439,271.963 L402.919,271.963 C398.776,271.963 395.419,275.32 395.419,279.463 C395.419,283.606 398.776,286.963 402.919,286.963 L438.378,286.963 C431.945,296.029 428.147,307.089 428.147,319.027 L428.147,330.5 L241.976,330.5 C242.249,328.491 242.402,326.445 242.402,324.362 L242.402,286.963 L370.957,286.963 C375.1,286.963 378.457,283.606 378.457,279.463 C378.457,275.32 375.1,271.963 370.957,271.963 L242.402,271.963 L242.402,190.594 C242.402,186.451 239.044,183.094 234.902,183.094 C230.76,183.094 227.402,186.451 227.402,190.594 L227.402,300.861 L15,300.861 L15,269.437 L95.77,269.437 C117.355,269.437 134.916,251.875 134.916,230.291 L134.916,173.668 C134.916,152.083 117.355,134.522 95.77,134.522 L72.649,134.522 C68.507,134.522 65.149,137.879 65.149,142.022 C65.149,146.165 68.507,149.522 72.649,149.522 L95.77,149.522 C109.084,149.522 119.916,160.354 119.916,173.668 L119.916,230.291 C119.916,243.605 109.084,254.437 95.77,254.437 L15,254.437 L15,149.521 L40.687,149.521 C44.829,149.521 48.187,146.164 48.187,142.021 C48.187,137.878 44.829,134.521 40.687,134.521 L15,134.521 L15,103.595 L227.402,103.595 L227.402,158.632 C227.402,162.775 230.76,166.132 234.902,166.132 C239.044,166.132 242.402,162.775 242.402,158.632 L242.402,138.238 L495.173,138.238 L495.173,263.475 L483.7,263.475 L483.7,263.476 Z" id="Shape"></path>
            <path d="M280.91,110.345 C285.053,110.345 288.41,106.988 288.41,102.845 L288.41,100.243 C288.41,96.1 285.053,92.743 280.91,92.743 C276.767,92.743 273.41,96.1 273.41,100.243 L273.41,102.845 C273.41,106.988 276.767,110.345 280.91,110.345 Z" id="Path"></path>
            <path d="M321.289,110.345 C325.432,110.345 328.789,106.988 328.789,102.845 L328.789,100.243 C328.789,96.1 325.432,92.743 321.289,92.743 C317.146,92.743 313.789,96.1 313.789,100.243 L313.789,102.845 C313.789,106.988 317.146,110.345 321.289,110.345 Z" id="Path"></path>
            <path d="M361.667,110.345 C365.81,110.345 369.167,106.988 369.167,102.845 L369.167,100.243 C369.167,96.1 365.81,92.743 361.667,92.743 C357.524,92.743 354.167,96.1 354.167,100.243 L354.167,102.845 C354.167,106.988 357.524,110.345 361.667,110.345 Z" id="Path"></path>
            <path d="M402.044,110.345 C406.187,110.345 409.544,106.988 409.544,102.845 L409.544,100.243 C409.544,96.1 406.187,92.743 402.044,92.743 C397.901,92.743 394.544,96.1 394.544,100.243 L394.544,102.845 C394.544,106.988 397.902,110.345 402.044,110.345 Z" id="Path"></path>
            <path d="M442.422,110.345 C446.565,110.345 449.922,106.988 449.922,102.845 L449.922,100.243 C449.922,96.1 446.565,92.743 442.422,92.743 C438.279,92.743 434.922,96.1 434.922,100.243 L434.922,102.845 C434.922,106.988 438.28,110.345 442.422,110.345 Z" id="Path"></path>
            <path d="M280.91,300.861 C276.767,300.861 273.41,304.218 273.41,308.361 L273.41,310.467 C273.41,314.61 276.767,317.967 280.91,317.967 C285.053,317.967 288.41,314.61 288.41,310.467 L288.41,308.361 C288.41,304.219 285.052,300.861 280.91,300.861 Z" id="Path"></path>
            <path d="M321.289,300.861 C317.146,300.861 313.789,304.218 313.789,308.361 L313.789,310.467 C313.789,314.61 317.146,317.967 321.289,317.967 C325.432,317.967 328.789,314.61 328.789,310.467 L328.789,308.361 C328.789,304.219 325.431,300.861 321.289,300.861 Z" id="Path"></path>
            <path d="M361.667,300.861 C357.524,300.861 354.167,304.218 354.167,308.361 L354.167,310.467 C354.167,314.61 357.524,317.967 361.667,317.967 C365.81,317.967 369.167,314.61 369.167,310.467 L369.167,308.361 C369.167,304.219 365.809,300.861 361.667,300.861 Z" id="Path"></path>
            <path d="M394.544,310.468 C394.544,314.611 397.901,317.968 402.044,317.968 C406.187,317.968 409.544,314.611 409.544,310.468 L409.544,308.362 C409.544,304.219 406.187,300.862 402.044,300.862 C397.901,300.862 394.544,304.219 394.544,308.362 L394.544,310.468 Z" id="Path"></path>
        </g>
    </g>
</svg>